<mxfile host="app.diagrams.net" modified="2024-05-16T11:12:15.618Z" agent="Mozilla/5.0 (Windows NT 10.0; Win64; x64) AppleWebKit/537.36 (KHTML, like Gecko) Chrome/124.0.0.0 Safari/537.36 Edg/124.0.0.0" etag="Zjsq_LO2-1P1ROv1Lz_A" version="24.4.0" type="github">
  <diagram name="Page-1" id="ErVDkJ_VCSMGlqEWy1Zw">
    <mxGraphModel dx="1106" dy="617" grid="1" gridSize="10" guides="1" tooltips="1" connect="1" arrows="1" fold="1" page="1" pageScale="1" pageWidth="850" pageHeight="1100" math="0" shadow="0">
      <root>
        <mxCell id="0" />
        <mxCell id="1" parent="0" />
        <mxCell id="4Zrpz9rt_v4OXxLSvFco-5" value="" style="rounded=0;whiteSpace=wrap;html=1;" parent="1" vertex="1">
          <mxGeometry x="640" y="40" width="320" height="1058" as="geometry" />
        </mxCell>
        <mxCell id="4Zrpz9rt_v4OXxLSvFco-7" value="Admin" style="shape=umlActor;verticalLabelPosition=bottom;verticalAlign=top;html=1;outlineConnect=0;" parent="1" vertex="1">
          <mxGeometry x="190" y="484" width="60" height="90" as="geometry" />
        </mxCell>
        <mxCell id="G-fdZk_4QnjWKT7sK4zd-1" value="Clerk" style="shape=umlActor;verticalLabelPosition=bottom;verticalAlign=top;html=1;outlineConnect=0;" parent="1" vertex="1">
          <mxGeometry x="198" y="794" width="60" height="90" as="geometry" />
        </mxCell>
        <mxCell id="G-fdZk_4QnjWKT7sK4zd-7" value="" style="ellipse;whiteSpace=wrap;html=1;" parent="1" vertex="1">
          <mxGeometry x="365" y="908" width="90" height="50" as="geometry" />
        </mxCell>
        <mxCell id="G-fdZk_4QnjWKT7sK4zd-8" value="View Transaction" style="text;html=1;align=center;verticalAlign=middle;whiteSpace=wrap;rounded=0;" parent="1" vertex="1">
          <mxGeometry x="380" y="918" width="60" height="30" as="geometry" />
        </mxCell>
        <mxCell id="G-fdZk_4QnjWKT7sK4zd-9" value="" style="ellipse;whiteSpace=wrap;html=1;" parent="1" vertex="1">
          <mxGeometry x="365" y="648" width="90" height="50" as="geometry" />
        </mxCell>
        <mxCell id="G-fdZk_4QnjWKT7sK4zd-10" value="Appoint Room" style="text;html=1;align=center;verticalAlign=middle;whiteSpace=wrap;rounded=0;" parent="1" vertex="1">
          <mxGeometry x="380" y="658" width="60" height="30" as="geometry" />
        </mxCell>
        <mxCell id="G-fdZk_4QnjWKT7sK4zd-13" value="" style="ellipse;whiteSpace=wrap;html=1;" parent="1" vertex="1">
          <mxGeometry x="366" y="708" width="90" height="50" as="geometry" />
        </mxCell>
        <mxCell id="G-fdZk_4QnjWKT7sK4zd-14" value="Create Invoice" style="text;html=1;align=center;verticalAlign=middle;whiteSpace=wrap;rounded=0;" parent="1" vertex="1">
          <mxGeometry x="381" y="718" width="60" height="30" as="geometry" />
        </mxCell>
        <mxCell id="G-fdZk_4QnjWKT7sK4zd-15" value="" style="ellipse;whiteSpace=wrap;html=1;" parent="1" vertex="1">
          <mxGeometry x="365" y="837" width="90" height="50" as="geometry" />
        </mxCell>
        <mxCell id="G-fdZk_4QnjWKT7sK4zd-16" value="View Tenants" style="text;html=1;align=center;verticalAlign=middle;whiteSpace=wrap;rounded=0;" parent="1" vertex="1">
          <mxGeometry x="380" y="847" width="60" height="30" as="geometry" />
        </mxCell>
        <mxCell id="G-fdZk_4QnjWKT7sK4zd-17" value="" style="ellipse;whiteSpace=wrap;html=1;" parent="1" vertex="1">
          <mxGeometry x="367" y="983" width="90" height="50" as="geometry" />
        </mxCell>
        <mxCell id="G-fdZk_4QnjWKT7sK4zd-18" value="Login" style="text;html=1;align=center;verticalAlign=middle;whiteSpace=wrap;rounded=0;" parent="1" vertex="1">
          <mxGeometry x="382" y="993" width="60" height="30" as="geometry" />
        </mxCell>
        <mxCell id="G-fdZk_4QnjWKT7sK4zd-19" value="" style="ellipse;whiteSpace=wrap;html=1;" parent="1" vertex="1">
          <mxGeometry x="510" y="608" width="90" height="50" as="geometry" />
        </mxCell>
        <mxCell id="G-fdZk_4QnjWKT7sK4zd-20" value="&amp;nbsp;Room Availability" style="text;html=1;align=center;verticalAlign=middle;whiteSpace=wrap;rounded=0;" parent="1" vertex="1">
          <mxGeometry x="525" y="618" width="60" height="30" as="geometry" />
        </mxCell>
        <mxCell id="G-fdZk_4QnjWKT7sK4zd-21" value="" style="ellipse;whiteSpace=wrap;html=1;" parent="1" vertex="1">
          <mxGeometry x="510" y="918" width="90" height="50" as="geometry" />
        </mxCell>
        <mxCell id="G-fdZk_4QnjWKT7sK4zd-22" value="Account Verifitcation" style="text;html=1;align=center;verticalAlign=middle;whiteSpace=wrap;rounded=0;" parent="1" vertex="1">
          <mxGeometry x="525" y="928" width="60" height="30" as="geometry" />
        </mxCell>
        <mxCell id="OqNi3e3sxdmpB97nI851-1" value="" style="ellipse;whiteSpace=wrap;html=1;" parent="1" vertex="1">
          <mxGeometry x="365" y="428" width="90" height="50" as="geometry" />
        </mxCell>
        <mxCell id="OqNi3e3sxdmpB97nI851-2" value="Create Clerk Account" style="text;html=1;align=center;verticalAlign=middle;whiteSpace=wrap;rounded=0;" parent="1" vertex="1">
          <mxGeometry x="380" y="438" width="60" height="30" as="geometry" />
        </mxCell>
        <mxCell id="OqNi3e3sxdmpB97nI851-3" value="" style="ellipse;whiteSpace=wrap;html=1;" parent="1" vertex="1">
          <mxGeometry x="365" y="508" width="90" height="50" as="geometry" />
        </mxCell>
        <mxCell id="OqNi3e3sxdmpB97nI851-4" value="Delete Clerk Account" style="text;html=1;align=center;verticalAlign=middle;whiteSpace=wrap;rounded=0;" parent="1" vertex="1">
          <mxGeometry x="380" y="518" width="60" height="30" as="geometry" />
        </mxCell>
        <mxCell id="OqNi3e3sxdmpB97nI851-15" value="Included" style="endArrow=open;endSize=12;dashed=1;html=1;rounded=0;entryX=0;entryY=0.5;entryDx=0;entryDy=0;exitX=1;exitY=0;exitDx=0;exitDy=0;" parent="1" source="G-fdZk_4QnjWKT7sK4zd-9" edge="1">
          <mxGeometry width="160" relative="1" as="geometry">
            <mxPoint x="385" y="708" as="sourcePoint" />
            <mxPoint x="515" y="643" as="targetPoint" />
          </mxGeometry>
        </mxCell>
        <mxCell id="OqNi3e3sxdmpB97nI851-18" value="Included" style="endArrow=open;endSize=12;dashed=1;html=1;rounded=0;entryX=0;entryY=0.5;entryDx=0;entryDy=0;exitX=1;exitY=0;exitDx=0;exitDy=0;" parent="1" source="G-fdZk_4QnjWKT7sK4zd-17" edge="1">
          <mxGeometry x="0.0011" width="160" relative="1" as="geometry">
            <mxPoint x="457" y="993" as="sourcePoint" />
            <mxPoint x="517" y="958" as="targetPoint" />
            <mxPoint as="offset" />
          </mxGeometry>
        </mxCell>
        <mxCell id="OqNi3e3sxdmpB97nI851-22" value="ARSENIA&#39;S APARTMENT RENTAL SYSTEM" style="text;html=1;align=center;verticalAlign=middle;whiteSpace=wrap;rounded=0;" parent="1" vertex="1">
          <mxGeometry x="410" y="10" width="190" height="30" as="geometry" />
        </mxCell>
        <mxCell id="OqNi3e3sxdmpB97nI851-37" value="" style="ellipse;whiteSpace=wrap;html=1;" parent="1" vertex="1">
          <mxGeometry x="365" y="772" width="90" height="50" as="geometry" />
        </mxCell>
        <mxCell id="OqNi3e3sxdmpB97nI851-38" value="Process Payment" style="text;html=1;align=center;verticalAlign=middle;whiteSpace=wrap;rounded=0;" parent="1" vertex="1">
          <mxGeometry x="380" y="782" width="60" height="30" as="geometry" />
        </mxCell>
        <mxCell id="h-XnsDV0ySAvDA9oJpLe-9" value="" style="ellipse;whiteSpace=wrap;html=1;" parent="1" vertex="1">
          <mxGeometry x="365" y="578" width="90" height="50" as="geometry" />
        </mxCell>
        <mxCell id="h-XnsDV0ySAvDA9oJpLe-10" value="View Clerk Account" style="text;html=1;align=center;verticalAlign=middle;whiteSpace=wrap;rounded=0;" parent="1" vertex="1">
          <mxGeometry x="380" y="588" width="60" height="30" as="geometry" />
        </mxCell>
        <mxCell id="UXnbN1iMbwUN801_TMf0-1" value="" style="ellipse;whiteSpace=wrap;html=1;" vertex="1" parent="1">
          <mxGeometry x="367" y="354" width="90" height="50" as="geometry" />
        </mxCell>
        <mxCell id="UXnbN1iMbwUN801_TMf0-2" value="View Room" style="text;html=1;align=center;verticalAlign=middle;whiteSpace=wrap;rounded=0;" vertex="1" parent="1">
          <mxGeometry x="382" y="364" width="60" height="30" as="geometry" />
        </mxCell>
        <mxCell id="UXnbN1iMbwUN801_TMf0-3" value="" style="ellipse;whiteSpace=wrap;html=1;" vertex="1" parent="1">
          <mxGeometry x="367" y="284" width="90" height="50" as="geometry" />
        </mxCell>
        <mxCell id="UXnbN1iMbwUN801_TMf0-4" value="View Clerk Account" style="text;html=1;align=center;verticalAlign=middle;whiteSpace=wrap;rounded=0;" vertex="1" parent="1">
          <mxGeometry x="382" y="294" width="60" height="30" as="geometry" />
        </mxCell>
        <mxCell id="UXnbN1iMbwUN801_TMf0-5" value="" style="ellipse;whiteSpace=wrap;html=1;" vertex="1" parent="1">
          <mxGeometry x="367" y="214" width="90" height="50" as="geometry" />
        </mxCell>
        <mxCell id="UXnbN1iMbwUN801_TMf0-6" value="Edit Clerk Account" style="text;html=1;align=center;verticalAlign=middle;whiteSpace=wrap;rounded=0;" vertex="1" parent="1">
          <mxGeometry x="382" y="224" width="60" height="30" as="geometry" />
        </mxCell>
        <mxCell id="UXnbN1iMbwUN801_TMf0-7" value="" style="ellipse;whiteSpace=wrap;html=1;" vertex="1" parent="1">
          <mxGeometry x="367" y="150" width="90" height="50" as="geometry" />
        </mxCell>
        <mxCell id="UXnbN1iMbwUN801_TMf0-8" value="Edit Account" style="text;html=1;align=center;verticalAlign=middle;whiteSpace=wrap;rounded=0;" vertex="1" parent="1">
          <mxGeometry x="382" y="160" width="60" height="30" as="geometry" />
        </mxCell>
      </root>
    </mxGraphModel>
  </diagram>
</mxfile>
